<?xml version="1.0" ?><svg data-name="Layer 1" id="Layer_1" viewBox="0 0 60 60" xmlns="http://www.w3.org/2000/svg"><defs><style>.cls-1{fill:none;stroke:#535353;stroke-miterlimit:10;stroke-width:2px;}</style></defs><title/><path class="cls-1" d="M26.67,36.23c-0.4,1.56-.8,3.2-1.22,4.8a35.76,35.76,0,0,1-1.37,4.63,23.67,23.67,0,0,1-3.91,6.61c-1.1,1.25-.86.75-1.2,0.68s-0.27-.3-0.32-0.65a35.57,35.57,0,0,1,0-6.26,33.36,33.36,0,0,1,1.12-6.51c0.93-3.87,1.81-7.66,2.74-11.56a2.48,2.48,0,0,0,.17-0.84,11.88,11.88,0,0,1-.82-3.19,10,10,0,0,1,.27-3.64,6,6,0,0,1,3.62-4.39,4.23,4.23,0,0,1,3.32.25,3.54,3.54,0,0,1,1.66,2.34A8.28,8.28,0,0,1,30.59,22c-0.51,2.28-1.18,4-1.79,6.21a6.71,6.71,0,0,0-.36,3.4A4,4,0,0,0,30.06,34a4.77,4.77,0,0,0,3.1.85A6.8,6.8,0,0,0,38.23,32a17.18,17.18,0,0,0,3.2-8.79,21.26,21.26,0,0,0,.13-3.78,9.7,9.7,0,0,0-7-9.05,16.23,16.23,0,0,0-7.16-.44,12.68,12.68,0,0,0-9.39,6.63,13.08,13.08,0,0,0-1.6,6.4,8.19,8.19,0,0,0,1.3,4.69c0.25,0.38.63,0.69,0.88,1.12,0.35,0.61-.05,1.52-0.23,2.18s-0.23,1.9-1.18,1.92a4,4,0,0,1-1.56-.73A9.48,9.48,0,0,1,12,27.29a15.38,15.38,0,0,1-.73-7.13,23.69,23.69,0,0,1,1.92-5.7,17.49,17.49,0,0,1,6.61-6.68,20.26,20.26,0,0,1,7.47-2.53c1-.14,2-0.2,3.07-0.25a18.71,18.71,0,0,1,8.27,1.52,16.93,16.93,0,0,1,5.7,4,15.15,15.15,0,0,1,3.5,6.21,15.35,15.35,0,0,1,.57,4.36,24.91,24.91,0,0,1-.4,4.37c-0.91,5.3-3.48,9.64-7.34,12.11a12.71,12.71,0,0,1-3.35,1.52,12.4,12.4,0,0,1-4.29.53,8.91,8.91,0,0,1-3.79-1.08A6.17,6.17,0,0,1,26.67,36.23Z"/></svg>